<svg width="26" height="26" viewBox="0 0 26 26" fill="none" xmlns="http://www.w3.org/2000/svg">
<g clip-path="url(#clip0_892_89)">
<path d="M3.73535 25.5H12.0527V16.4355H9.06445V13.4473H12.0527V9.71191C12.0527 7.65222 13.7284 5.97656 15.7881 5.97656H19.5234V8.96484H16.5352C15.7112 8.96484 15.041 9.63507 15.041 10.459V13.4473H19.3886L18.8906 16.4355H15.041V25.5H21.7646C23.8243 25.5 25.5 23.8243 25.5 21.7646V3.73535C25.5 1.67566 23.8243 0 21.7646 0H3.73535C1.67566 0 0 1.67566 0 3.73535V21.7646C0 23.8243 1.67566 25.5 3.73535 25.5ZM1.49414 3.73535C1.49414 2.49957 2.49957 1.49414 3.73535 1.49414H21.7646C23.0004 1.49414 24.0059 2.49957 24.0059 3.73535V21.7646C24.0059 23.0004 23.0004 24.0059 21.7646 24.0059H16.5352V17.9297H20.1563L21.1524 11.9531H16.5352V10.459H21.0176V4.48242H15.7881C12.9045 4.48242 10.5586 6.8283 10.5586 9.71191V11.9531H7.57031V17.9297H10.5586V24.0059H3.73535C2.49957 24.0059 1.49414 23.0004 1.49414 21.7646V3.73535Z" fill="black"/>
</g>
<defs>
<clipPath id="clip0_892_89">
<rect width="25.5" height="25.5" fill="white"/>
</clipPath>
</defs>
</svg>
