<svg width="17" height="17" viewBox="0 0 17 17" fill="none" xmlns="http://www.w3.org/2000/svg">
<g clip-path="url(#clip0_870_245)">
<path d="M2.49023 17H8.03516V10.957H6.04297V8.96484H8.03516V6.47461C8.03516 5.10148 9.15226 3.98438 10.5254 3.98438H13.0156V5.97656H11.0234C10.4742 5.97656 10.0273 6.42338 10.0273 6.97266V8.96484H12.9257L12.5937 10.957H10.0273V17H14.5098C15.8829 17 17 15.8829 17 14.5098V2.49023C17 1.1171 15.8829 0 14.5098 0H2.49023C1.1171 0 0 1.1171 0 2.49023V14.5098C0 15.8829 1.1171 17 2.49023 17ZM0.996094 2.49023C0.996094 1.66638 1.66638 0.996094 2.49023 0.996094H14.5098C15.3336 0.996094 16.0039 1.66638 16.0039 2.49023V14.5098C16.0039 15.3336 15.3336 16.0039 14.5098 16.0039H11.0234V11.9531H13.4375L14.1016 7.96875H11.0234V6.97266H14.0117V2.98828H10.5254C8.60298 2.98828 7.03906 4.5522 7.03906 6.47461V7.96875H5.04688V11.9531H7.03906V16.0039H2.49023C1.66638 16.0039 0.996094 15.3336 0.996094 14.5098V2.49023Z" fill="black"/>
</g>
<defs>
<clipPath id="clip0_870_245">
<rect width="17" height="17" fill="white"/>
</clipPath>
</defs>
</svg>
