<svg width="85" height="85" viewBox="0 0 85 85" fill="none" xmlns="http://www.w3.org/2000/svg">
<path d="M78.3597 69.0625C78.712 69.0625 79.0498 68.9226 79.2988 68.6735C79.5479 68.4245 79.6878 68.0866 79.6878 67.7344V22.5781C79.6879 22.3377 79.6226 22.1018 79.4991 21.8955C79.3755 21.6892 79.1983 21.5203 78.9863 21.4069C78.7743 21.2935 78.5354 21.2397 78.2953 21.2514C78.0551 21.2631 77.8226 21.3397 77.6226 21.4731L76.9346 21.9314C76.6507 19.782 75.6711 17.7847 74.1456 16.2443C74.4648 16.1489 74.7906 16.0769 75.1204 16.0292L75.8788 15.9256C76.0516 15.902 76.2181 15.8447 76.3688 15.7568C76.5195 15.6689 76.6514 15.5522 76.7569 15.4133C76.8625 15.2744 76.9397 15.1161 76.9841 14.9474C77.0285 14.7787 77.0392 14.6029 77.0156 14.4301C76.9921 14.2573 76.9347 14.0907 76.8468 13.9401C76.7589 13.7894 76.6422 13.6575 76.5034 13.5519C76.3645 13.4464 76.2062 13.3692 76.0375 13.3248C75.8688 13.2804 75.693 13.2697 75.5202 13.2932L74.7605 13.3968C73.6682 13.5475 72.6103 13.8868 71.6341 14.3996C70.4711 13.7897 69.1971 13.4204 67.8883 13.3136C66.5794 13.2069 65.2625 13.3648 64.016 13.778C64.7021 12.8697 65.0749 11.7633 65.0785 10.625C65.0785 9.21606 64.5187 7.8648 63.5225 6.86852C62.5262 5.87223 61.1749 5.31252 59.766 5.31252C59.3509 5.31236 58.9374 5.36321 58.5348 5.46393C57.9242 4.5966 57.1141 3.8888 56.1726 3.40022C55.2311 2.91163 54.186 2.65658 53.1253 2.65658C52.0646 2.65658 51.0195 2.91163 50.0781 3.40022C49.1366 3.8888 48.3264 4.5966 47.7159 5.46393C47.3132 5.36329 46.8997 5.31244 46.4847 5.31252C45.0757 5.31252 43.7245 5.87223 42.7282 6.86852C41.7319 7.8648 41.1722 9.21606 41.1722 10.625C41.172 11.0401 41.2229 11.4536 41.3236 11.8562C40.5964 12.3656 39.9797 13.0168 39.5105 13.7707C39.0413 14.5245 38.7293 15.3654 38.5934 16.2428C38.4574 17.1203 38.5002 18.0161 38.7193 18.8766C38.9383 19.7371 39.329 20.5444 39.868 21.25C39.6769 21.5062 39.5043 21.7756 39.3513 22.0562L32.9378 10.9358L31.6097 8.63284C30.8247 7.27255 29.7793 6.0803 28.5333 5.12422C27.2873 4.16814 25.8652 3.46698 24.348 3.06082C22.8309 2.65465 21.2487 2.55144 19.6916 2.75709C18.1346 2.96273 16.6334 3.4732 15.2738 4.25932C13.7502 5.14145 12.6387 6.59184 12.1831 8.29237C11.7275 9.99289 11.9649 11.8047 12.8433 13.3304L14.3613 15.9588C14.5387 16.2613 14.8286 16.4814 15.1676 16.5711C15.5067 16.6607 15.8674 16.6126 16.1712 16.4373C16.4749 16.2619 16.6969 15.9735 16.7888 15.6351C16.8807 15.2966 16.835 14.9355 16.6617 14.6306L15.1409 12.0023C14.879 11.5489 14.7091 11.0483 14.6407 10.5292C14.5724 10.0101 14.6071 9.48255 14.7428 8.97682C14.8785 8.4711 15.1125 7.99708 15.4315 7.58187C15.7505 7.16665 16.1482 6.81838 16.6019 6.55698C17.6593 5.94662 18.8265 5.5505 20.037 5.39124C21.2474 5.23198 22.4774 5.3127 23.6566 5.62879C24.8359 5.94488 25.9414 6.49015 26.9099 7.23347C27.8784 7.97678 28.6911 8.90358 29.3014 9.96096L29.9655 11.1098L25.3662 13.766C25.2151 13.8532 25.0826 13.9694 24.9763 14.1078C24.8701 14.2462 24.7921 14.4041 24.7469 14.5727C24.7017 14.7412 24.6902 14.917 24.7129 15.09C24.7356 15.263 24.7922 15.4298 24.8794 15.5809C24.9666 15.732 25.0828 15.8645 25.2212 15.9708C25.3596 16.077 25.5175 16.155 25.6861 16.2002C25.8546 16.2454 26.0304 16.2569 26.2034 16.2342C26.3764 16.2115 26.5432 16.1549 26.6943 16.0677L31.2949 13.4114L33.2871 16.8646L28.6865 19.5208C28.4558 19.6559 28.2713 19.8576 28.1571 20.0993C28.0428 20.341 28.0042 20.6116 28.0462 20.8756C28.0883 21.1396 28.209 21.3848 28.3927 21.5791C28.5764 21.7734 28.8144 21.9077 29.0756 21.9646L23.1695 25.8985L19.0948 18.8421C18.9187 18.5369 18.6285 18.3142 18.2881 18.2229C17.9478 18.1316 17.5851 18.1793 17.2799 18.3554C16.9747 18.5315 16.7519 18.8216 16.6606 19.162C16.5694 19.5024 16.617 19.865 16.7931 20.1703L18.9181 23.8531L15.3442 21.4705C15.144 21.3376 14.9115 21.2616 14.6715 21.2504C14.4315 21.2392 14.193 21.2933 13.9813 21.407C13.7697 21.5207 13.5928 21.6896 13.4696 21.8958C13.3464 22.1021 13.2814 22.3379 13.2816 22.5781V29.2188C13.2816 29.571 13.4215 29.9088 13.6706 30.1579C13.9196 30.407 14.2575 30.5469 14.6097 30.5469C14.9619 30.5469 15.2998 30.407 15.5488 30.1579C15.7979 29.9088 15.9378 29.571 15.9378 29.2188V25.0604L21.8413 28.9956C22.0596 29.1413 22.3161 29.219 22.5785 29.219C22.8408 29.219 23.0973 29.1413 23.3156 28.9956L30.5472 24.1719L37.7788 28.993C37.9971 29.1386 38.2536 29.2163 38.516 29.2163C38.7783 29.2163 39.0348 29.1386 39.2531 28.993L46.4847 24.1719L53.7163 28.993C53.9346 29.1386 54.1911 29.2163 54.4535 29.2163C54.7158 29.2163 54.9723 29.1386 55.1906 28.993L61.0941 25.0591V79.6875H43.8285C43.4762 79.6875 43.1384 79.8274 42.8893 80.0765C42.6403 80.3256 42.5003 80.6634 42.5003 81.0156C42.5003 81.3679 42.6403 81.7057 42.8893 81.9548C43.1384 82.2038 43.4762 82.3438 43.8285 82.3438H78.3597C78.712 82.3438 79.0498 82.2038 79.2988 81.9548C79.5479 81.7057 79.6878 81.3679 79.6878 81.0156V73.0469C79.6878 72.6947 79.5479 72.3568 79.2988 72.1078C79.0498 71.8587 78.712 71.7188 78.3597 71.7188C78.0075 71.7188 77.6697 71.8587 77.4206 72.1078C77.1715 72.3568 77.0316 72.6947 77.0316 73.0469V77.8096L71.7191 72.4971V65.0781C71.7191 64.7259 71.5792 64.3881 71.3301 64.139C71.081 63.8899 70.7432 63.75 70.391 63.75C70.0387 63.75 69.7009 63.8899 69.4518 64.139C69.2028 64.3881 69.0628 64.7259 69.0628 65.0781V72.4971L63.7503 77.8096V25.0591L69.0628 28.6012V45.1563C69.0628 45.5085 69.2028 45.8463 69.4518 46.0954C69.7009 46.3445 70.0387 46.4844 70.391 46.4844C70.7432 46.4844 71.081 46.3445 71.3301 46.0954C71.5792 45.8463 71.7191 45.5085 71.7191 45.1563V28.6012L77.0316 25.0604V67.7344C77.0316 68.0866 77.1715 68.4245 77.4206 68.6735C77.6697 68.9226 78.0075 69.0625 78.3597 69.0625ZM69.185 16.2523C68.7059 16.7574 68.2833 17.3132 67.9246 17.9098C67.831 18.0593 67.7682 18.2261 67.7397 18.4002C67.7113 18.5743 67.7178 18.7523 67.7589 18.9239C67.8001 19.0955 67.875 19.2571 67.9793 19.3994C68.0836 19.5417 68.2152 19.6618 68.3664 19.7527C68.5176 19.8436 68.6854 19.9034 68.86 19.9287C69.0346 19.954 69.2125 19.9443 69.3833 19.9001C69.5541 19.8558 69.7144 19.778 69.8548 19.6712C69.9952 19.5643 70.1129 19.4306 70.201 19.2778C70.5903 18.6304 71.0839 18.052 71.662 17.5658C72.5094 18.2493 73.193 19.1139 73.6625 20.0962C74.1321 21.0785 74.3756 22.1535 74.3753 23.2422C74.3753 23.3843 74.3528 23.5198 74.3435 23.6592L70.391 26.2969L63.1593 21.4758C62.9413 21.3293 62.6848 21.2507 62.4222 21.25C62.4214 20.3158 62.171 19.3988 61.697 18.5938C61.8088 18.4018 61.9086 18.203 61.9959 17.9988C62.9284 17.0911 64.0873 16.4503 65.3518 16.1431C66.6163 15.8359 67.9401 15.8736 69.185 16.2523ZM31.2843 21.4731C31.1692 21.397 31.0428 21.3396 30.9098 21.3031L34.6152 19.1649L38.6713 26.1906L38.516 26.2969L31.2843 21.4731ZM54.4535 26.2969L49.0546 22.6977C50.587 19.8689 53.0608 17.6653 56.0472 16.4688C56.3744 16.3377 56.6362 16.0821 56.7749 15.758C56.9137 15.434 56.918 15.0681 56.787 14.7409C56.6559 14.4137 56.4003 14.1519 56.0762 14.0131C55.7522 13.8744 55.3863 13.8701 55.0591 14.0011C53.5346 14.6173 52.1114 15.459 50.837 16.498C50.9596 14.865 50.822 13.2229 50.4292 11.6331C50.3879 11.4628 50.3132 11.3024 50.2096 11.1611C50.106 11.0199 49.9754 10.9005 49.8255 10.8099C49.6755 10.7193 49.5091 10.6592 49.3358 10.6332C49.1626 10.6072 48.9859 10.6157 48.8159 10.6583C48.6459 10.7009 48.4861 10.7767 48.3456 10.8813C48.205 10.9859 48.0866 11.1173 47.997 11.2679C47.9075 11.4185 47.8486 11.5854 47.8239 11.7588C47.7991 11.9323 47.8089 12.1089 47.8527 12.2785C48.6117 15.3142 48.2308 18.5229 46.7822 21.2965C46.6067 21.254 46.4243 21.2479 46.2463 21.2787C46.0683 21.3096 45.8986 21.3767 45.7476 21.4758L41.2559 24.4707C41.4288 23.6076 41.8844 22.8267 42.5508 22.2514C42.6921 22.1268 42.8053 21.9735 42.8828 21.8018C42.9604 21.63 43.0005 21.4438 43.0005 21.2553C43.0005 21.0669 42.9604 20.8806 42.8828 20.7089C42.8053 20.5372 42.6921 20.3839 42.5508 20.2592C42.118 19.8898 41.7705 19.4308 41.5325 18.9139C41.2945 18.3971 41.1716 17.8347 41.1722 17.2656C41.1756 16.5025 41.3975 15.7563 41.8118 15.1154C42.226 14.4744 42.8153 13.9656 43.5097 13.6492C43.6732 13.5744 43.8198 13.4673 43.9406 13.3343C44.0615 13.2013 44.1541 13.0451 44.2128 12.8752C44.2716 12.7054 44.2952 12.5253 44.2823 12.3461C44.2694 12.1668 44.2203 11.992 44.1379 11.8323C43.9388 11.4607 43.8326 11.0465 43.8285 10.625C43.8317 10.172 43.9508 9.72743 44.1743 9.33344C44.3979 8.93944 44.7185 8.60916 45.1056 8.37399C45.4928 8.13882 45.9337 8.00657 46.3863 7.98981C46.839 7.97304 47.2885 8.07233 47.692 8.27823C47.8517 8.36063 48.0265 8.40976 48.2058 8.42264C48.385 8.43551 48.565 8.41187 48.7349 8.35314C48.9048 8.29441 49.061 8.20181 49.194 8.08095C49.327 7.96009 49.4341 7.81349 49.5088 7.65002C49.8224 6.95331 50.3304 6.36199 50.972 5.94716C51.6136 5.53233 52.3613 5.31165 53.1253 5.31165C53.8893 5.31165 54.6371 5.53233 55.2786 5.94716C55.9202 6.36199 56.4283 6.95331 56.7418 7.65002C56.8165 7.81367 56.9236 7.96045 57.0567 8.08145C57.1898 8.20245 57.3461 8.29515 57.5161 8.35393C57.6861 8.41158 57.866 8.43459 58.0451 8.42159C58.2241 8.40858 58.3988 8.35984 58.5587 8.27823C58.8882 8.10587 59.2504 8.00504 59.6216 7.98232C59.9928 7.9596 60.3646 8.01551 60.7127 8.14639C61.0608 8.27727 61.3773 8.48017 61.6416 8.74182C61.9059 9.00347 62.1119 9.31797 62.2462 9.66473C62.3806 10.0115 62.4402 10.3827 62.4212 10.7541C62.4022 11.1255 62.3049 11.4887 62.1359 11.8199C61.9668 12.1512 61.7297 12.443 61.4401 12.6763C61.1505 12.9096 60.8149 13.0791 60.4553 13.1737C60.2743 13.2227 60.1058 13.3094 59.9608 13.4282C59.8158 13.5469 59.6976 13.6951 59.6139 13.8628C59.5302 14.0305 59.483 14.214 59.4753 14.4013C59.4677 14.5886 59.4997 14.7754 59.5694 14.9494C59.6974 15.2632 59.7641 15.5986 59.766 15.9375C59.7639 16.5927 59.5165 17.2233 59.0727 17.7053C58.8532 17.9491 58.7317 18.2656 58.7317 18.5938C58.7317 18.9219 58.8532 19.2384 59.0727 19.4823C59.4182 19.8585 59.6471 20.3268 59.7316 20.8305C59.8162 21.3343 59.7527 21.8517 59.549 22.32C59.3452 22.7884 59.0099 23.1876 58.5838 23.4691C58.1577 23.7507 57.659 23.9026 57.1482 23.9063C57.1137 23.9063 56.9729 23.8863 56.9397 23.885C56.7305 23.8711 56.5209 23.9074 56.3286 23.9908C56.1362 24.0743 55.9665 24.2025 55.8337 24.3648C55.7009 24.5271 55.6088 24.7188 55.5651 24.9239C55.5214 25.1289 55.5273 25.3415 55.5824 25.5438L54.4535 26.2969ZM70.391 74.9249L75.1536 79.6875H65.6283L70.391 74.9249Z" fill="black"/>
<path d="M70.3906 51.7969C70.0384 51.7969 69.7006 51.9368 69.4515 52.1859C69.2024 52.4349 69.0625 52.7728 69.0625 53.125V58.4375C69.0625 58.7897 69.2024 59.1276 69.4515 59.3766C69.7006 59.6257 70.0384 59.7656 70.3906 59.7656C70.7429 59.7656 71.0807 59.6257 71.3298 59.3766C71.5788 59.1276 71.7188 58.7897 71.7188 58.4375V53.125C71.7188 52.7728 71.5788 52.4349 71.3298 52.1859C71.0807 51.9368 70.7429 51.7969 70.3906 51.7969Z" fill="black"/>
<path d="M42.5691 68.344C42.395 68.3311 42.2201 68.3527 42.0544 68.4075C41.8886 68.4623 41.7353 68.5493 41.6032 68.6634C41.4711 68.7775 41.3628 68.9165 41.2845 69.0725C41.2061 69.2285 41.1593 69.3984 41.1467 69.5725C40.8492 73.6578 38.0136 79.6875 35.8594 79.6875C34.7062 79.6839 33.5862 79.3013 32.6719 78.5984C32.4413 78.4241 32.1601 78.3298 31.8711 78.3298C31.582 78.3298 31.3008 78.4241 31.0702 78.5984C30.1581 79.2996 29.0411 79.6822 27.8907 79.6875C25.5 79.6875 22.5782 72.5741 22.5782 69.0625C22.5782 67.6535 23.1379 66.3023 24.1342 65.306C25.1304 64.3097 26.4817 63.75 27.8907 63.75C29.0439 63.7536 30.1639 64.1362 31.0782 64.8391C31.3088 65.0134 31.5899 65.1077 31.879 65.1077C32.1681 65.1077 32.4493 65.0134 32.6799 64.8391C33.7382 64.0484 35.0531 63.6804 36.3681 63.8068C37.6831 63.9333 38.9038 64.5452 39.792 65.523C40.0332 65.7597 40.3556 65.8955 40.6934 65.9028C41.0312 65.9102 41.3592 65.7884 41.6104 65.5624C41.8616 65.3364 42.0172 65.0231 42.0456 64.6864C42.0739 64.3497 41.9728 64.0148 41.7629 63.75C41.0195 62.9188 40.11 62.2529 39.0931 61.7954C38.0761 61.3378 36.9745 61.0988 35.8594 61.0938C34.9027 61.0971 33.9549 61.2773 33.0637 61.625C32.9644 60.992 32.8065 60.3695 32.5922 59.7656H35.8594C37.62 59.7635 39.3078 59.0632 40.5527 57.8183C41.7976 56.5734 42.4979 54.8856 42.5 53.125C42.5 52.7728 42.3601 52.4349 42.111 52.1859C41.862 51.9368 41.5242 51.7969 41.1719 51.7969H37.1875C35.7388 51.8009 34.3313 52.2791 33.18 53.1586C32.0288 54.0381 31.1973 55.2704 30.8125 56.6671C30.1833 55.9006 29.446 55.2295 28.6238 54.6749C28.4787 54.5781 28.3159 54.5109 28.1448 54.477C27.9737 54.4431 27.7976 54.4432 27.6265 54.4774C27.4555 54.5115 27.2928 54.579 27.1479 54.6761C27.0029 54.7731 26.8785 54.8977 26.7817 55.0428C26.6849 55.1879 26.6176 55.3507 26.5837 55.5218C26.5498 55.6929 26.5499 55.869 26.5841 56.0401C26.6183 56.2111 26.6858 56.3738 26.7828 56.5187C26.8798 56.6637 27.0045 56.7881 27.1496 56.8849C28.7633 57.9608 29.9039 59.6137 30.3371 61.5041C29.5489 61.237 28.7229 61.0984 27.8907 61.0938C27.4454 61.0964 27.0011 61.1364 26.5625 61.2133V59.5385C26.5663 58.1725 26.299 56.8193 25.7763 55.5572C25.2536 54.2952 24.4857 53.1493 23.5171 52.186C22.7959 51.4688 22.2242 50.6157 21.835 49.6759C21.4459 48.7362 21.247 47.7286 21.25 46.7115V41.1719C21.6023 41.1719 21.9401 41.0319 22.1892 40.7829C22.4382 40.5338 22.5782 40.196 22.5782 39.8438V34.5313C22.5782 34.179 22.4382 33.8412 22.1892 33.5921C21.9401 33.3431 21.6023 33.2031 21.25 33.2031H9.29691C8.94467 33.2031 8.60686 33.3431 8.35779 33.5921C8.10872 33.8412 7.96879 34.179 7.96879 34.5313V39.8438C7.96879 40.196 8.10872 40.5338 8.35779 40.7829C8.60686 41.0319 8.94467 41.1719 9.29691 41.1719V46.7115C9.29992 47.7286 9.10109 48.7362 8.71193 49.6759C8.32277 50.6157 7.75102 51.4688 7.0298 52.186C6.06126 53.1493 5.2934 54.2952 4.77066 55.5572C4.24792 56.8193 3.98068 58.1725 3.98441 59.5385V81.0156C3.98441 81.3679 4.12434 81.7057 4.37341 81.9548C4.62248 82.2038 4.9603 82.3438 5.31254 82.3438H19.9219C20.2742 82.3438 20.612 82.2038 20.861 81.9548C21.1101 81.7057 21.25 81.3679 21.25 81.0156C21.25 80.6634 21.1101 80.3256 20.861 80.0765C20.612 79.8274 20.2742 79.6875 19.9219 79.6875H6.64066V73.0469H20.5501C21.6857 77.2889 24.3021 82.3438 27.8907 82.3438C29.2925 82.3437 30.6685 81.9671 31.875 81.2534C33.0815 81.9673 34.4576 82.3439 35.8594 82.3438C40.4016 82.3438 43.4855 74.035 43.7976 69.7664C43.8105 69.5923 43.7889 69.4174 43.7341 69.2517C43.6793 69.0859 43.5923 68.9326 43.4782 68.8005C43.3641 68.6684 43.2251 68.5601 43.0691 68.4818C42.9131 68.4034 42.7432 68.3566 42.5691 68.344ZM37.1875 54.4531H39.6167C39.341 55.2294 38.8319 55.9014 38.1592 56.377C37.4865 56.8525 36.6832 57.1084 35.8594 57.1094H33.4303C33.706 56.3331 34.2151 55.6611 34.8877 55.1855C35.5604 54.71 36.3637 54.4541 37.1875 54.4531ZM10.625 35.8594H19.9219V38.5156H10.625V35.8594ZM6.64066 70.3906V63.75H18.5938C18.946 63.75 19.2838 63.6101 19.5329 63.361C19.782 63.1119 19.9219 62.7741 19.9219 62.4219C19.9219 62.0696 19.782 61.7318 19.5329 61.4827C19.2838 61.2337 18.946 61.0938 18.5938 61.0938H6.64066V59.5385C6.63766 58.5214 6.83649 57.5138 7.22565 56.5741C7.6148 55.6344 8.18655 54.7812 8.90777 54.064C9.87631 53.1007 10.6442 51.9548 11.1669 50.6928C11.6897 49.4307 11.9569 48.0775 11.9532 46.7115V41.1719H18.5938V46.7115C18.5898 48.0776 18.8569 49.4308 19.3796 50.6929C19.9024 51.955 20.6704 53.1009 21.6392 54.064C22.3604 54.7812 22.9321 55.6344 23.3213 56.5741C23.7105 57.5138 23.9093 58.5214 23.9063 59.5385V62.1722C22.6965 62.8707 21.6915 63.8749 20.9922 65.0843C20.2929 66.2936 19.9238 67.6655 19.9219 69.0625C19.9282 69.5068 19.961 69.9503 20.0202 70.3906H6.64066Z" fill="black"/>
<path d="M54.4531 35.8594H42.5C42.1478 35.8594 41.8099 35.9993 41.5609 36.2484C41.3118 36.4974 41.1719 36.8353 41.1719 37.1875C41.1719 37.5397 41.3118 37.8776 41.5609 38.1266C41.8099 38.3757 42.1478 38.5156 42.5 38.5156H54.4531C54.8054 38.5156 55.1432 38.3757 55.3923 38.1266C55.6413 37.8776 55.7812 37.5397 55.7812 37.1875C55.7812 36.8353 55.6413 36.4974 55.3923 36.2484C55.1432 35.9993 54.8054 35.8594 54.4531 35.8594Z" fill="black"/>
<path d="M54.4531 42.5H46.4844C46.1321 42.5 45.7943 42.6399 45.5452 42.889C45.2962 43.1381 45.1562 43.4759 45.1562 43.8281C45.1562 44.1804 45.2962 44.5182 45.5452 44.7673C45.7943 45.0163 46.1321 45.1562 46.4844 45.1562H54.4531C54.8054 45.1562 55.1432 45.0163 55.3923 44.7673C55.6413 44.5182 55.7812 44.1804 55.7812 43.8281C55.7812 43.4759 55.6413 43.1381 55.3923 42.889C55.1432 42.6399 54.8054 42.5 54.4531 42.5Z" fill="black"/>
</svg>
