<svg width="64" height="85" viewBox="0 0 64 85" fill="none" xmlns="http://www.w3.org/2000/svg">
<path d="M31.543 34.1992C32.4598 34.1992 33.2031 33.4559 33.2031 32.5391C33.2031 31.6222 32.4598 30.8789 31.543 30.8789C30.6261 30.8789 29.8828 31.6222 29.8828 32.5391C29.8828 33.4559 30.6261 34.1992 31.543 34.1992Z" fill="black"/>
<path d="M19.0899 49.1405H43.9922C44.909 49.1405 45.6524 48.3973 45.6524 47.4804V31.8796L47.8924 33.7997C48.5914 34.3988 49.6391 34.3127 50.2332 33.6194C50.8299 32.9233 50.7492 31.8752 50.0529 31.2784L32.6215 16.3372C31.9999 15.8043 31.0823 15.8043 30.4606 16.3372L13.0291 31.2784C12.3329 31.8751 12.2522 32.9231 12.8489 33.6194C13.4453 34.3157 14.4936 34.3962 15.1897 33.7997L17.4297 31.8796V47.4804C17.4297 48.3973 18.1731 49.1405 19.0899 49.1405ZM20.75 29.0336L31.541 19.7842L42.3321 29.0336V45.8202H33.2012V39.1796C33.2012 38.2627 32.4578 37.5194 31.541 37.5194C30.6243 37.5194 29.8809 38.2627 29.8809 39.1796V45.8202H20.75V29.0336Z" fill="black"/>
<path d="M30.35 84.4943C30.6628 84.8176 31.0932 85 31.543 85C31.9927 85 32.4232 84.8176 32.736 84.4943C43.3317 73.5574 63.0859 48.9532 63.0859 32.5391C63.0859 26.7458 61.5109 21.0026 58.5308 15.9305C58.0661 15.14 57.0489 14.8757 56.2584 15.34C55.4678 15.8045 55.2035 16.8219 55.6679 17.6124C58.3487 22.1752 59.7656 27.3368 59.7656 32.5391C59.7656 49.3347 37.0568 74.9441 31.543 80.9134C26.0291 74.9441 3.32031 49.3347 3.32031 32.5391C3.32031 16.7008 16.2448 3.32031 31.543 3.32031C36.586 3.32031 41.5587 4.77145 45.9232 7.51702C46.699 8.00527 47.7243 7.77186 48.2124 6.99573C48.7005 6.21961 48.4671 5.19463 47.691 4.70654C42.7963 1.62745 37.2124 0 31.543 0C13.8537 0 0 15.3996 0 32.5391C0 48.9361 19.7213 73.5233 30.35 84.4943Z" fill="black"/>
<path d="M52.625 12.4512C53.5419 12.4512 54.2852 11.7079 54.2852 10.791C54.2852 9.87414 53.5419 9.13086 52.625 9.13086C51.7081 9.13086 50.9648 9.87414 50.9648 10.791C50.9648 11.7079 51.7081 12.4512 52.625 12.4512Z" fill="black"/>
</svg>
