<svg width="91" height="82" viewBox="0 0 91 82" fill="none" xmlns="http://www.w3.org/2000/svg">
<path d="M90.9572 64.3938L90.6101 62.5201C90.3888 61.3229 89.3433 60.454 88.1243 60.454C87.9712 60.454 87.817 60.468 87.6652 60.4959L80.5985 61.7941L83.7988 59.6547C84.6375 59.0941 85.0614 58.0914 84.8785 57.0966C84.8277 56.8241 84.7324 56.5627 84.5945 56.3179L83.626 54.603C83.2942 54.0138 82.7283 53.576 82.0751 53.4026C81.7552 53.3173 81.4207 53.2982 81.0944 53.3407C81.4507 51.3739 81.6345 49.3652 81.6345 47.3204C81.6345 46.413 81.0889 45.6322 80.3095 45.2855C81.3279 42.8633 81.3974 40.0903 80.3907 37.5509C80.3091 37.3443 80.1879 37.16 80.031 37.0029C79.8753 36.8472 79.6931 36.7269 79.4864 36.6439C78.2801 36.1635 77.0124 35.92 75.7183 35.92C75.5528 35.92 75.3881 35.9242 75.2238 35.9321C75.0392 32.2116 71.9599 29.2415 68.2009 29.2415C67.7059 29.2415 67.2231 29.2941 66.757 29.3922C67.0808 27.4549 66.8901 25.4282 66.1356 23.5254C66.0545 23.3162 65.9328 23.1285 65.7673 22.9603C65.6081 22.8011 65.4213 22.6783 65.214 22.596C63.9146 22.0784 62.5489 21.8161 61.1548 21.8161C59.0547 21.8161 57.0458 22.4065 55.3114 23.5042C54.6778 21.6688 53.6329 19.9456 52.173 18.4823C51.7454 18.054 51.1766 17.818 50.5715 17.818C49.9663 17.818 49.3975 18.054 48.9694 18.4827L42.5153 24.9515C41.3209 23.8862 39.7492 23.2493 38.0434 23.2493C37.6563 23.2493 37.2654 23.2833 36.8817 23.3501C35.4913 23.5922 34.2118 24.2727 33.2309 25.2695C31.973 24.6625 30.5322 24.4554 29.1474 24.6965C28.8428 24.7494 28.5472 24.8241 28.2604 24.9151V19.9303C28.2604 16.4976 25.5014 13.6999 22.0886 13.6409V10.8139C23.1333 10.6331 23.931 9.72257 23.931 8.62702V2.22167C23.931 0.996731 22.9344 0 21.7093 0H10.8691C9.64401 0 8.64745 0.996731 8.64745 2.22167V8.62702C8.64745 9.72257 9.44512 10.6331 10.4898 10.8139V13.6405C7.077 13.6994 4.31822 16.4971 4.31822 19.93V58.8352C1.65683 61.2387 0 64.5923 0 68.3009C0 75.5962 6.40286 81.5314 14.2733 81.5314L67.6266 81.5158C69.4477 81.5151 71.1603 80.7147 72.3252 79.3202C73.4598 77.9627 73.942 76.1994 73.6642 74.4605L84.3206 76.3755C84.4681 76.402 84.6192 76.4155 84.769 76.4155C85.3004 76.4155 85.8096 76.2524 86.2408 75.9442C86.7952 75.5482 87.1704 74.9352 87.2704 74.2628L87.5591 72.326C87.6007 72.0486 87.596 71.7692 87.5454 71.4953C87.362 70.505 86.6078 69.7192 85.6241 69.4939L81.868 68.6322L88.9278 67.3353C89.5936 67.213 90.1712 66.8392 90.5544 66.2828C90.9369 65.7277 91.0798 65.0569 90.9572 64.3938ZM75.7183 38.5856C76.5207 38.5856 77.3097 38.7127 78.0683 38.9631C78.7461 41.0273 78.4923 43.2538 77.4309 45.093H73.84L74.9858 43.9445C75.5059 43.4234 75.5048 42.5793 74.9835 42.0593C74.4622 41.5392 73.6182 41.5401 73.0985 42.0614L72.4922 42.6691C72.208 41.7333 71.7118 40.8955 71.0595 40.2082C72.3826 39.1576 74.0067 38.5856 75.7183 38.5856ZM68.2009 31.9071C70.6083 31.9071 72.5667 33.8714 72.5667 36.2859C72.5667 36.3307 72.5646 36.375 72.5633 36.4194C71.1582 36.8764 69.863 37.6397 68.7584 38.6764C68.5826 38.6098 68.4044 38.5479 68.2213 38.4973C67.8313 36.3908 66.4118 34.7023 64.5365 33.9137C65.3148 32.708 66.6652 31.9071 68.2009 31.9071ZM61.1546 24.4817C62.06 24.4817 62.9497 24.6282 63.8071 24.9179C64.4962 26.9668 64.3554 29.1677 63.4774 31.0741C62.7556 31.7315 62.17 32.5366 61.7697 33.4417C61.5317 33.4555 61.2938 33.4818 61.0586 33.5227C60.0141 33.7045 59.0401 34.1577 58.225 34.815C57.947 34.3067 57.6067 33.8377 57.2167 33.4154L60.2736 30.3516C60.7936 29.8305 60.7926 28.9864 60.2713 28.4665C59.7501 27.9465 58.9061 27.9474 58.386 28.4687L55.045 31.8174C54.4093 31.5168 53.7221 31.3078 53 31.21C53.3119 29.6193 54.0838 28.1205 55.2778 26.9236C56.8488 25.3489 58.936 24.4817 61.1546 24.4817ZM50.9402 45.093H49.7848C49.5902 44.5978 49.1091 44.2468 48.5448 44.2468C47.9804 44.2468 47.4993 44.598 47.3047 45.093H45.9454C46.2611 44.579 46.1972 43.8979 45.7517 43.4532C45.2306 42.9332 44.3865 42.9341 43.8664 43.4552L42.6101 44.7142C42.4972 44.8273 42.4105 44.9561 42.3466 45.093H39.6335C38.6174 43.5337 37.9973 41.6933 37.9239 39.7133H59.0717C58.9983 41.6933 58.3782 43.5337 57.3621 45.093H54.5388C54.4752 44.9561 54.3881 44.8271 54.2754 44.7141L53.0192 43.455C52.499 42.9341 51.6553 42.9326 51.1342 43.4529C50.6882 43.8976 50.6244 44.5788 50.9402 45.093ZM47.84 37.0473C48.3425 35.1852 50.0411 33.8112 52.0541 33.8112C54.0673 33.8112 55.7659 35.1854 56.2684 37.0473H47.84ZM50.5659 20.6566C51.8339 22.0269 52.6723 23.6539 53.0834 25.364C52.4028 26.1036 51.8374 26.9208 51.3915 27.7904C51.1891 27.6664 50.9518 27.5937 50.6971 27.5937H48.9208C48.1847 27.5937 47.5878 28.1905 47.5878 28.9267C47.5878 29.6629 48.1847 30.2597 48.9208 30.2597H50.479C50.3914 30.6278 50.3233 31.0003 50.2739 31.3757C49.7446 31.5147 49.2392 31.7127 48.766 31.9647C47.8775 30.4314 46.4063 29.2887 44.6631 28.8304C44.6625 28.8266 44.6618 28.8229 44.6611 28.8192C44.5566 28.2159 44.3742 27.6436 44.1256 27.1117L50.5659 20.6566ZM26.4692 32.6849C26.391 32.4663 26.3318 32.242 26.2929 32.0169C25.9105 29.8129 27.3964 27.7071 29.6044 27.3226C29.8372 27.2821 30.0738 27.2615 30.3073 27.2615C31.1855 27.2615 32.0248 27.5416 32.7341 28.0714C33.0275 28.2908 33.3986 28.3794 33.7598 28.3169C34.121 28.2541 34.4403 28.0457 34.643 27.7401C35.2688 26.7962 36.2262 26.1699 37.3388 25.9761C37.5722 25.9354 37.8093 25.915 38.0434 25.915C40.0183 25.915 41.6969 27.328 42.0342 29.275C42.0729 29.4981 42.0928 29.7306 42.0932 29.9661C42.0944 30.656 42.6221 31.2312 43.3096 31.2916C44.7999 31.4226 46.0686 32.3605 46.6567 33.6818C45.8693 34.6268 45.3235 35.7806 45.1163 37.0473H37.5142C36.5691 37.0473 35.7581 37.6308 35.4198 38.4566C33.7474 37.3175 31.7763 36.7038 29.7107 36.7038C28.4166 36.7038 27.1488 36.9475 25.9417 37.428C25.7369 37.5098 25.5538 37.6305 25.3978 37.7865C25.2396 37.9447 25.1182 38.1301 25.0386 38.3334C24.7318 39.1071 24.5272 39.9025 24.4167 40.7028C23.9389 40.1589 23.6023 39.4826 23.4708 38.7237C23.1573 36.9151 24.1041 35.1143 25.7724 34.3444C26.3995 34.055 26.7018 33.3348 26.4692 32.6849ZM30.4429 44.7285L30.8066 45.093H27.6051C26.8863 43.4255 26.7772 41.5275 27.3607 39.7473C28.1203 39.4965 28.9089 39.3696 29.7107 39.3696C31.7192 39.3696 33.6087 40.1547 35.0308 41.5799C35.2199 41.7695 35.396 41.9683 35.5615 42.1735C35.7874 43.1962 36.1345 44.1732 36.5817 45.0928H34.5728L32.3303 42.8452C31.8101 42.3243 30.966 42.3228 30.4452 42.8431C29.924 43.3633 29.9229 44.2073 30.4429 44.7285ZM24.7661 45.093H20.0141C20.2259 43.8018 21.0026 42.701 22.0807 42.052C22.719 42.907 23.552 43.5984 24.5118 44.0668C24.5797 44.4126 24.663 44.7555 24.7661 45.093ZM11.3135 2.66601H21.2649V8.18268H11.3135V2.66601ZM19.4226 10.8487V13.6379H13.156V10.8487H19.4226ZM6.9844 25.3359H15.6406C16.3769 25.3359 16.9736 24.7391 16.9736 24.0029C16.9736 23.2668 16.3769 22.6699 15.6406 22.6699H6.9844V19.93C6.9844 17.9305 8.60604 16.3039 10.5993 16.3039H21.9793C23.9727 16.3039 25.5944 17.9305 25.5944 19.93V22.6699H23.1054C22.369 22.6699 21.7724 23.2668 21.7724 24.0029C21.7724 24.7391 22.369 25.3359 23.1054 25.3359H25.5944V26.5191C24.0671 28.0165 23.2739 30.2124 23.6656 32.4712C23.6663 32.4757 23.6672 32.4803 23.6679 32.4849C21.5294 33.9521 20.39 36.5605 20.8437 39.1791C20.8702 39.3319 20.9034 39.4823 20.9397 39.6311C20.2737 39.9983 19.6757 40.4724 19.1631 41.0273H6.9844V25.3359ZM6.98422 43.6932H17.6152C17.4737 44.1425 17.3738 44.6101 17.3251 45.093H17.1005C15.8736 45.093 14.8752 46.092 14.8752 47.32C14.8752 49.4366 15.072 51.5145 15.4532 53.5474C15.0702 53.5167 14.6774 53.5001 14.2779 53.5001C12.6658 53.5001 11.1299 53.7559 9.95344 54.2205C8.15389 54.9311 7.65641 55.9401 7.54782 56.6382C7.35711 56.7331 7.16978 56.8334 6.98422 56.9359V43.6932ZM23.8638 60.0686C24.3438 60.4527 24.6373 60.7792 24.8074 61.0147C24.7914 61.0149 24.7747 61.0151 24.7578 61.0151C24.0033 61.0151 22.6477 60.711 21.1062 59.8577C20.5323 59.5397 20.0036 59.1805 19.577 58.8192C19.0797 58.3978 18.3505 58.3981 17.8535 58.8194C17.427 59.181 16.8984 59.5401 16.325 59.8573C14.7832 60.711 13.4276 61.0151 12.6733 61.0151C12.6561 61.0151 12.6395 61.0149 12.6234 61.0147C12.7933 60.7792 13.0867 60.4526 13.5669 60.0683C13.9866 59.7324 14.1634 59.1771 14.0154 58.6605C13.8671 58.1436 13.4232 57.7663 12.8891 57.7037C11.5882 57.5512 10.7657 57.2201 10.3805 56.9791C10.8631 56.6786 12.083 56.1662 14.2784 56.1662C16.0966 56.1662 17.4255 56.5485 18.0629 56.9064C18.4683 57.1339 18.9626 57.1339 19.368 56.9066C20.0057 56.5486 21.3348 56.1663 23.153 56.1663C25.3486 56.1663 26.5683 56.6789 27.0507 56.9793C26.6657 57.2205 25.843 57.5514 24.5418 57.7039C24.0077 57.7666 23.5636 58.1438 23.4155 58.6608C23.2669 59.1777 23.4438 59.7329 23.8638 60.0686ZM21.1972 76.2933L21.2431 76.5403C21.4016 77.3964 21.7359 78.1822 22.203 78.8654H14.2733C7.87307 78.8654 2.66601 74.1263 2.66601 68.3009C2.66601 64.3199 5.09882 60.8477 8.68122 59.0472C9.09268 59.3543 9.60562 59.6192 10.2142 59.8328C9.97281 60.245 9.80468 60.6882 9.76504 61.1505C9.71243 61.7651 9.90048 62.3488 10.295 62.7942C10.8163 63.3828 11.6165 63.6813 12.6733 63.6813C14.0817 63.6813 15.9296 63.1237 17.6163 62.1899C18.0046 61.975 18.3718 61.7481 18.7155 61.511C19.0591 61.7479 19.4263 61.9748 19.8148 62.1901C21.5015 63.1237 23.3494 63.6811 24.7578 63.6813H24.7579C25.8144 63.6813 26.6145 63.3829 27.1357 62.7944C27.5304 62.349 27.7186 61.7653 27.6658 61.1505C27.6262 60.6882 27.4581 60.245 27.2167 59.8328C27.8253 59.619 28.3384 59.3542 28.7498 59.0472C31.5909 60.4751 33.7079 62.9547 34.4627 65.9056L25.0349 69.4871C22.2752 70.5357 20.6612 73.398 21.1972 76.2933ZM70.2791 77.611C69.6218 78.398 68.6544 78.8494 67.6254 78.8498L66.2262 78.8503L65.3521 74.1306C65.2179 73.4067 64.5228 72.928 63.7986 73.0626C63.0748 73.1966 62.5966 73.8921 62.7306 74.616L63.5151 78.8512L58.9285 78.853L58.3375 75.6614C58.2033 74.9375 57.508 74.4594 56.784 74.5934C56.0602 74.7274 55.5819 75.4229 55.716 76.1468L56.2172 78.854L45.5487 78.8581L44.7457 74.5236C44.6113 73.7996 43.9164 73.3215 43.1921 73.4557C42.4682 73.5897 41.9901 74.2854 42.1241 75.0093L42.8374 78.8592L27.2601 78.8652C27.2597 78.8652 27.2594 78.8652 27.259 78.8652C25.5933 78.8652 24.1657 77.6833 23.8639 76.0542L23.8181 75.8071C23.5168 74.1798 24.4265 72.5701 25.9811 71.9793L31.2202 69.989L31.6105 72.0955C31.7294 72.7373 32.2896 73.1859 32.9195 73.1859C33.0002 73.1859 33.0819 73.1785 33.164 73.1634C33.8878 73.0292 34.3659 72.3337 34.2317 71.6098L33.753 69.0268L41.5298 66.0725C42.218 65.8111 42.564 65.0411 42.3026 64.3529C42.0411 63.6646 41.2703 63.3187 40.5832 63.5801L36.9643 64.9549C35.9491 61.3606 33.3411 58.3581 29.8825 56.638C29.7739 55.9399 29.2765 54.9309 27.4771 54.2203C26.3007 53.7557 24.7647 53.5 23.1527 53.5C22.0432 53.5 20.9838 53.6224 20.0485 53.8455V53.0403C20.0485 52.3042 19.4519 51.7073 18.7155 51.7073C18.4043 51.7073 18.1189 51.8147 17.8919 51.9935C17.6817 50.6031 17.564 49.1908 17.5444 47.7586H60.9627C61.699 47.7586 62.2957 47.1618 62.2957 46.4256C62.2957 45.6895 61.699 45.0926 60.9627 45.0926H60.4172C61.266 43.3444 61.7456 41.3844 61.7456 39.3129C61.7456 38.1368 60.8457 37.168 59.699 37.058C60.1982 36.5872 60.8214 36.2698 61.5159 36.1487C61.7194 36.1133 61.926 36.0954 62.13 36.0954C63.851 36.0954 65.3134 37.3266 65.6072 39.0225C65.6411 39.2189 65.6586 39.4215 65.6587 39.625C65.6596 40.3153 66.1875 40.8908 66.8751 40.9513C68.4682 41.0911 69.7715 42.2892 70.0447 43.8647C70.1172 44.2836 70.1081 44.697 70.0354 45.0926H68.6052C67.8689 45.0926 67.2722 45.6895 67.2722 46.4256C67.2722 47.1618 67.8689 47.7586 68.6052 47.7586H78.9656C78.9326 50.2039 78.6176 52.5925 78.0302 54.9099L70.8061 59.1745C70.3642 57.6367 69.3373 56.3323 67.9223 55.5404C66.3354 54.6522 64.4494 54.5134 62.7485 55.1595L47.8703 60.8118C47.1819 61.0732 46.836 61.8431 47.0975 62.5313C47.3589 63.2197 48.1296 63.5652 48.8169 63.3041L50.7769 62.5596L51.3855 65.8454C51.5044 66.4872 52.0646 66.9359 52.6947 66.9359C52.7752 66.9359 52.8569 66.9285 52.939 66.9134C53.6628 66.7793 54.1411 66.0839 54.007 65.36L53.3102 61.5973L63.6949 57.6522C64.6572 57.2868 65.7232 57.3651 66.6203 57.8672C67.5157 58.3683 68.136 59.2321 68.3222 60.2366L71.019 74.7957C71.2049 75.7997 70.9353 76.8257 70.2791 77.611ZM75.0352 67.1769C74.4134 67.2912 73.9575 67.8265 73.9434 68.4587C73.9296 69.0909 74.3618 69.6458 74.978 69.7871L84.9027 72.0635L84.6547 73.727L73.1493 71.6594L71.3508 61.9491L81.3722 56.0334L82.207 57.5116L73.7543 63.1619C73.2288 63.5133 73.0222 64.1855 73.26 64.7713C73.4977 65.3571 74.1144 65.6955 74.7361 65.5812L88.0139 63.1422L88.3096 64.7383L75.0352 67.1769Z" fill="black"/>
</svg>
