<svg width="17" height="17" viewBox="0 0 17 17" fill="none" xmlns="http://www.w3.org/2000/svg">
<g clip-path="url(#clip0_870_247)">
<path d="M12.3982 0H4.60174C2.0643 0 0 2.0643 0 4.60174V12.3984C0 14.9357 2.0643 17 4.60174 17H12.3984C14.9357 17 17 14.9357 17 12.3984V4.60174C17 2.0643 14.9357 0 12.3982 0V0ZM16.0034 12.3984C16.0034 14.3861 14.3861 16.0034 12.3982 16.0034H4.60174C2.61383 16.0034 0.996611 14.3861 0.996611 12.3984V4.60174C0.996611 2.61383 2.61383 0.996611 4.60174 0.996611H12.3984C14.3861 0.996611 16.0034 2.61383 16.0034 4.60174V12.3984Z" fill="black"/>
<path d="M8.50011 3.85181C5.93698 3.85181 3.85181 5.93698 3.85181 8.50011C3.85181 11.0632 5.93698 13.1484 8.50011 13.1484C11.0632 13.1484 13.1484 11.0632 13.1484 8.50011C13.1484 5.93698 11.0632 3.85181 8.50011 3.85181ZM8.50011 12.1518C6.48665 12.1518 4.84842 10.5137 4.84842 8.50011C4.84842 6.48665 6.48665 4.84842 8.50011 4.84842C10.5137 4.84842 12.1518 6.48665 12.1518 8.50011C12.1518 10.5137 10.5137 12.1518 8.50011 12.1518Z" fill="black"/>
<path d="M13.2595 2.20093C12.5021 2.20093 11.886 2.81713 11.886 3.57445C11.886 4.33189 12.5021 4.94809 13.2595 4.94809C14.0169 4.94809 14.6331 4.33189 14.6331 3.57445C14.6331 2.817 14.0169 2.20093 13.2595 2.20093ZM13.2595 3.95135C13.0517 3.95135 12.8826 3.78222 12.8826 3.57445C12.8826 3.36654 13.0517 3.19754 13.2595 3.19754C13.4674 3.19754 13.6365 3.36654 13.6365 3.57445C13.6365 3.78222 13.4674 3.95135 13.2595 3.95135Z" fill="black"/>
</g>
<defs>
<clipPath id="clip0_870_247">
<rect width="17" height="17" fill="white"/>
</clipPath>
</defs>
</svg>
