<svg width="26" height="26" viewBox="0 0 26 26" fill="none" xmlns="http://www.w3.org/2000/svg">
<g clip-path="url(#clip0_892_91)">
<path d="M18.5973 0H6.90261C3.09644 0 0 3.09644 0 6.90261V18.5975C0 22.4035 3.09644 25.5 6.90261 25.5H18.5975C22.4035 25.5 25.5 22.4035 25.5 18.5975V6.90261C25.5 3.09644 22.4035 0 18.5973 0V0ZM24.005 18.5975C24.005 21.5792 21.5792 24.005 18.5973 24.005H6.90261C3.92075 24.005 1.49492 21.5792 1.49492 18.5975V6.90261C1.49492 3.92075 3.92075 1.49492 6.90261 1.49492H18.5975C21.5792 1.49492 24.005 3.92075 24.005 6.90261V18.5975Z" fill="black"/>
<path d="M12.7498 5.77734C8.90511 5.77734 5.77734 8.90511 5.77734 12.7498C5.77734 16.5945 8.90511 19.7222 12.7498 19.7222C16.5945 19.7222 19.7222 16.5945 19.7222 12.7498C19.7222 8.90511 16.5945 5.77734 12.7498 5.77734ZM12.7498 18.2273C9.72961 18.2273 7.27226 15.7702 7.27226 12.7498C7.27226 9.72961 9.72961 7.27226 12.7498 7.27226C15.7702 7.27226 18.2273 9.72961 18.2273 12.7498C18.2273 15.7702 15.7702 18.2273 12.7498 18.2273Z" fill="black"/>
<path d="M19.8894 3.30127C18.7532 3.30127 17.8291 4.22557 17.8291 5.36155C17.8291 6.49771 18.7532 7.42202 19.8894 7.42202C21.0255 7.42202 21.9498 6.49771 21.9498 5.36155C21.9498 4.22538 21.0255 3.30127 19.8894 3.30127ZM19.8894 5.9269C19.5777 5.9269 19.324 5.67321 19.324 5.36155C19.324 5.04968 19.5777 4.79619 19.8894 4.79619C20.2012 4.79619 20.4549 5.04968 20.4549 5.36155C20.4549 5.67321 20.2012 5.9269 19.8894 5.9269Z" fill="black"/>
</g>
<defs>
<clipPath id="clip0_892_91">
<rect width="25.5" height="25.5" fill="white"/>
</clipPath>
</defs>
</svg>
