<svg width="86" height="86" viewBox="0 0 86 86" fill="none" xmlns="http://www.w3.org/2000/svg">
<g clip-path="url(#clip0_0_2990)">
<path d="M72.0227 76.1012V84.567C72.0227 85.3584 71.381 86.0001 70.5895 86.0001C69.7981 86.0001 69.1564 85.3584 69.1564 84.567V76.1012C69.1564 69.5096 63.8224 64.1753 57.2303 64.1754C54.1112 64.1754 51.2813 62.5864 49.6599 59.9247C49.2482 59.2488 49.4623 58.3669 50.1384 57.9552C50.8143 57.5434 51.696 57.7576 52.1079 58.4337C53.2046 60.2343 55.1194 61.3092 57.2303 61.3092C65.4058 61.3088 72.0227 67.9249 72.0227 76.1012ZM47.0132 61.7352C47.1818 62.5085 46.6915 63.272 45.9181 63.4406C42.1464 64.2623 38.3104 63.4397 35.2562 61.355C32.2326 64.5952 28.2381 64.1754 28.7729 64.1754C22.1813 64.1753 16.8468 69.5091 16.8468 76.1012V84.567C16.8468 85.3584 16.2051 86.0001 15.4136 86.0001C14.6222 86.0001 13.9805 85.3584 13.9805 84.567V76.1012C13.9805 67.9258 20.596 61.3092 28.7725 61.3092C32.0798 61.3092 34.7611 58.6444 34.7611 55.3362V54.9587C28.5056 51.9676 24.1148 45.682 23.8471 38.3624C21.2728 37.7434 19.3548 35.4393 19.3548 32.6978V25.2682C19.2765 21.6316 19.8164 12.5235 26.4574 6.12196C34.6577 -1.78291 47.8083 -1.28077 57.478 3.37426C58.4205 3.82839 58.5636 5.10174 57.781 5.76117C62.6796 6.95605 66.9038 9.96745 69.6177 14.2773C69.7578 14.4992 70.0143 14.8477 69.9473 15.4035C69.9057 15.7495 69.8027 16.0422 69.5362 16.3127C67.7895 18.0841 66.8277 20.4314 66.8277 22.9224V32.6982C66.8277 33.4897 66.186 34.1314 65.3946 34.1314C64.6031 34.1314 63.9614 33.4897 63.9614 32.6982V22.9224C63.9614 20.0494 64.9429 17.3225 66.7457 15.132C63.998 11.2023 59.7111 8.67493 54.8627 8.15578L52.3438 7.88599C50.8709 7.72834 50.5819 5.69918 51.9508 5.13578L53.0964 4.6641C38.1763 -0.537326 22.2209 5.24201 22.2209 25.2527V32.6978C22.2209 33.835 22.8758 34.8234 23.8332 35.3198V26.0289C23.8332 20.4973 28.3336 15.9969 33.8652 15.9969H52.1378C57.6694 15.9969 62.1698 20.4969 62.1698 26.0283V37.7628C62.1698 50.2265 49.9902 59.6935 37.5967 56.0449C37.5161 57.0674 37.2616 58.0541 36.8468 58.9713C39.2577 60.627 42.3023 61.2948 45.3078 60.6399C46.0811 60.4715 46.8446 60.9618 47.0132 61.7352ZM43.0015 53.9559C51.9905 53.9559 59.3035 46.6429 59.3035 37.6538V26.0283C59.3035 22.0775 56.089 18.8632 52.1378 18.8632H33.8652C29.914 18.8632 26.6995 22.0777 26.6995 26.0289V37.6538C26.6995 46.6429 34.0124 53.9559 43.0015 53.9559ZM57.5121 78.6552H53.2126C52.4212 78.6552 51.7795 79.2969 51.7795 80.0884C51.7795 80.8798 52.4212 81.5215 53.2126 81.5215H57.5121C58.3035 81.5215 58.9452 80.8798 58.9452 80.0884C58.9452 79.2969 58.3035 78.6552 57.5121 78.6552Z" fill="black"/>
</g>
<defs>
<clipPath id="clip0_0_2990">
<rect width="86" height="86" fill="white"/>
</clipPath>
</defs>
</svg>
