<svg width="82" height="82" viewBox="0 0 82 82" fill="none" xmlns="http://www.w3.org/2000/svg">
<path d="M57.8183 56.7478H55.416V63.5599H57.326L41.6964 79.5976H40.3075L32.2001 71.2785L30.4795 72.9551L39.294 82H42.7098L63.0215 61.1575H57.8183V56.7478Z" fill="black"/>
<path d="M24.6759 63.5601H26.586V56.748H24.1836V61.1578H18.9805L28.8011 71.235L30.5215 69.5583L24.6759 63.5601Z" fill="black"/>
<path d="M41.002 57.1758C43.4852 57.1758 45.9533 56.8554 48.3374 56.2239L47.7223 53.9017C45.5387 54.48 43.2776 54.7734 41.002 54.7734C26.5632 54.7734 14.8164 43.0266 14.8164 28.5879C14.8164 22.0215 17.2583 15.7408 21.6924 10.9026L19.9212 9.27942C15.0802 14.5617 12.4141 21.4189 12.4141 28.5879C12.4141 44.3512 25.2386 57.1758 41.002 57.1758Z" fill="black"/>
<path d="M41.0037 0C33.8352 0 26.9781 2.66612 21.6953 7.50716L23.3183 9.27833C28.157 4.84425 34.4377 2.40234 41.0037 2.40234C55.4425 2.40234 67.1893 14.1492 67.1893 28.5879C67.1893 39.5799 60.2476 49.4777 49.916 53.217L50.7334 55.4759C56.2045 53.4957 60.891 49.9353 64.2861 45.1796C67.757 40.3181 69.5916 34.5808 69.5916 28.5879C69.5916 12.8245 56.7671 0 41.0037 0V0Z" fill="black"/>
<path d="M30.0938 40.2746L36.3352 43.8783L46.741 25.8547L44.6606 24.6535L35.4559 40.5966L33.3753 39.3954L46.5484 16.5792L48.6288 17.7804L45.8621 22.5726L47.9425 23.7737L51.9104 16.9011L45.6691 13.2976L30.0938 40.2746Z" fill="black"/>
<path d="M44.72 35.9151C44.0784 37.0264 43.9078 38.3213 44.24 39.561C44.5721 40.8006 45.3672 41.8367 46.4786 42.4784C47.2333 42.9142 48.0583 43.1213 48.8728 43.1212C50.5344 43.1212 52.153 42.2594 53.0419 40.7198C54.3665 38.4252 53.5776 35.4811 51.2833 34.1564C48.9886 32.8317 46.0446 33.6208 44.72 35.9151ZM50.0822 36.2368C51.2294 36.8991 51.6237 38.3714 50.9614 39.5186C50.299 40.6656 48.827 41.0603 47.6798 40.3979C47.1241 40.0771 46.7266 39.559 46.5605 38.9391C46.3944 38.3193 46.4796 37.6718 46.8006 37.1162C47.245 36.3464 48.0543 35.9156 48.8852 35.9156C49.2923 35.9156 49.7048 36.019 50.0822 36.2368Z" fill="black"/>
<path d="M35.5225 14.6974C33.2278 13.3728 30.2838 14.1617 28.9592 16.4561C27.6345 18.7505 28.4234 21.6948 30.7178 23.0193C31.4582 23.4468 32.2798 23.6651 33.1125 23.6651C33.5297 23.6651 33.95 23.6101 34.3638 23.4993C35.6034 23.1672 36.6395 22.3721 37.2812 21.2607C38.6057 18.9663 37.8169 16.0221 35.5225 14.6974ZM35.2008 20.0596C34.5385 21.207 33.0662 21.6013 31.919 20.9389C30.7718 20.2767 30.3773 18.8045 31.0396 17.6573C31.484 16.8874 32.2933 16.4566 33.1242 16.4566C33.5315 16.4566 33.944 16.5601 34.3214 16.7779C35.4686 17.4403 35.863 18.9123 35.2008 20.0596Z" fill="black"/>
<path d="M62.1247 39.5302C64.2845 35.3656 65.1567 30.6835 64.6466 25.9902L62.2584 26.2497C62.7172 30.4711 61.9334 34.6811 59.9922 38.4241L62.1247 39.5302Z" fill="black"/>
<path d="M57.4844 42.2051L59.3356 43.7363C59.8702 43.09 60.3758 42.4083 60.838 41.7105L58.8355 40.3838C58.4198 41.011 57.9652 41.6239 57.4844 42.2051Z" fill="black"/>
<path d="M50.6094 61.1572H53.0117V63.5596H50.6094V61.1572Z" fill="black"/>
</svg>
