<svg width="84" height="84" viewBox="0 0 84 84" fill="none" xmlns="http://www.w3.org/2000/svg">
<path d="M77.4375 79.4062V36.0938C80.337 36.0938 82.6875 33.7432 82.6875 30.8438V3.28125C82.6875 2.55642 82.0998 1.96875 81.375 1.96875H2.625C1.90017 1.96875 1.3125 2.55642 1.3125 3.28125V30.8438C1.3125 33.7432 3.66302 36.0938 6.5625 36.0938V79.4062H0V82.0312H7.875H76.125H84V79.4062H77.4375ZM24.9375 79.4062H14.4375V76.7812H24.9375V79.4062ZM59.0625 49.2188V51.8438H24.9375V49.2188H59.0625ZM36.75 46.5938V41.3438H47.25V46.5938H36.75ZM40.6875 79.4062H27.5625V54.4688H40.6875V79.4062ZM56.4375 79.4062H43.3125V54.4688H56.4375V79.4062ZM69.5625 79.4062H59.0625V76.7812H69.5625V79.4062ZM74.8125 79.4062H72.1875V41.3438C72.1875 40.6189 71.5998 40.0312 70.875 40.0312H53.8125V42.6562H69.5625V74.1562H59.0625V54.4688H60.375C61.0998 54.4688 61.6875 53.8811 61.6875 53.1562V47.9062C61.6875 47.1814 61.0998 46.5938 60.375 46.5938H49.875V40.0312C49.875 39.3064 49.2873 38.7188 48.5625 38.7188H35.4375C34.7127 38.7188 34.125 39.3064 34.125 40.0312V46.5938H23.625C22.9002 46.5938 22.3125 47.1814 22.3125 47.9062V53.1562C22.3125 53.8811 22.9002 54.4688 23.625 54.4688H24.9375V74.1562H14.4375V42.6562H30.1875V40.0312H13.125C12.4002 40.0312 11.8125 40.6189 11.8125 41.3438V79.4062H9.1875V36.0938H14.4375C15.9452 36.0946 17.3801 35.4455 18.375 34.3127C19.3699 35.4455 20.8048 36.0946 22.3125 36.0938H30.1875C31.6952 36.0946 33.1301 35.4455 34.125 34.3127C35.1199 35.4455 36.5548 36.0946 38.0625 36.0938H45.9375C47.4452 36.0946 48.8801 35.4455 49.875 34.3127C50.8699 35.4455 52.3048 36.0946 53.8125 36.0938H61.6875C63.1952 36.0946 64.6301 35.4455 65.625 34.3127C66.6199 35.4455 68.0548 36.0946 69.5625 36.0938H74.8125V79.4062ZM69.5625 33.4688C68.1127 33.4688 66.9375 32.2936 66.9375 30.8438V28.2188H77.4375V25.5938H66.9375V19.0312H64.3125V30.8438C64.3125 32.2936 63.1373 33.4688 61.6875 33.4688H53.8125C52.3627 33.4688 51.1875 32.2936 51.1875 30.8438V28.2188H61.6875V25.5938H51.1875V19.0312H48.5625V30.8438C48.5625 32.2936 47.3873 33.4688 45.9375 33.4688H38.0625C36.6127 33.4688 35.4375 32.2936 35.4375 30.8438V28.2188H45.9375V25.5938H35.4375V19.0312H32.8125V30.8438C32.8125 32.2936 31.6373 33.4688 30.1875 33.4688H22.3125C20.8627 33.4688 19.6875 32.2936 19.6875 30.8438V28.2188H30.1875V25.5938H19.6875V19.0312H17.0625V30.8438C17.0625 32.2936 15.8873 33.4688 14.4375 33.4688H6.5625C5.11268 33.4688 3.9375 32.2936 3.9375 30.8438V28.2188H14.4375V25.5938H3.9375V4.59375H80.0625V30.8438C80.0625 32.2936 78.8873 33.4688 77.4375 33.4688H69.5625Z" fill="black"/>
<path d="M48.5625 66.2812H45.9375V68.9062H48.5625V66.2812Z" fill="black"/>
<path d="M38.0625 66.2812H35.4375V68.9062H38.0625V66.2812Z" fill="black"/>
</svg>
