<svg width="27" height="27" viewBox="0 0 27 27" fill="none" xmlns="http://www.w3.org/2000/svg">
<g clip-path="url(#clip0_892_87)">
<path d="M0.466931 12.5954L7.06955 15.886C7.32493 16.012 7.62643 16.003 7.87055 15.8601L13.7476 12.4435L10.1903 15.5958C10.0092 15.7566 9.90568 15.9861 9.90568 16.228V23.9061C9.90568 24.7161 10.9396 25.057 11.4244 24.4135L14.2786 20.6189L21.3368 24.6385C21.8318 24.9231 22.4663 24.6374 22.581 24.0715L26.9832 2.13402C27.1148 1.47477 26.4589 0.937021 25.8492 1.18227L0.536681 11.0541C-0.142819 11.3196 -0.186694 12.2703 0.466931 12.5954ZM25.0257 3.31527L21.1568 22.5944L14.4687 18.7851C14.1042 18.577 13.6351 18.6693 13.3763 19.0113L11.5932 21.3816V16.6071L21.2131 8.08415C21.9747 7.41027 21.0994 6.21215 20.2298 6.7229L7.41605 14.1726L2.92505 11.935L25.0257 3.31527Z" fill="black"/>
</g>
<defs>
<clipPath id="clip0_892_87">
<rect width="27" height="27" fill="white"/>
</clipPath>
</defs>
</svg>
