<svg width="17" height="15" viewBox="0 0 17 15" fill="none" xmlns="http://www.w3.org/2000/svg">
<path d="M0.293379 7.2241L4.45059 9.29597C4.61138 9.3753 4.80121 9.36964 4.95492 9.27968L8.65525 7.12847L6.4155 9.11322C6.30146 9.21451 6.2363 9.35901 6.2363 9.5113V14.3457C6.2363 14.8557 6.88725 15.0703 7.19254 14.6651L8.98959 12.2759L13.4337 14.8068C13.7453 14.986 14.1448 14.8061 14.2171 14.4498L16.9888 0.637308C17.0717 0.222225 16.6587 -0.116359 16.2748 0.0380581L0.337295 6.25368C-0.0905381 6.42085 -0.118163 7.01939 0.293379 7.2241ZM15.7563 1.38106L13.3203 13.5198L9.10929 11.1213C8.8798 10.9903 8.58442 11.0484 8.4215 11.2637L7.2988 12.7562V9.75001L13.3558 4.38368C13.8353 3.95939 13.2842 3.20501 12.7367 3.5266L4.66875 8.21718L1.84109 6.80831L15.7563 1.38106Z" fill="black"/>
</svg>
