<svg width="84" height="84" viewBox="0 0 84 84" fill="none" xmlns="http://www.w3.org/2000/svg">
<path d="M82.6 43.4075H79.8V39.2083C79.8 37.7234 79.21 36.2992 78.1598 35.2492C77.1096 34.1992 75.6852 33.6093 74.2 33.6093C72.7148 33.6093 71.2904 34.1992 70.2402 35.2492C69.19 36.2992 68.6 37.7234 68.6 39.2083C68.6 37.7234 68.01 36.2992 66.9598 35.2492C65.9096 34.1992 64.4852 33.6093 63 33.6093C62.014 33.6151 61.0475 33.8838 60.2 34.3876V25.2109C60.1978 23.3554 59.4596 21.5765 58.1473 20.2645C56.835 18.9525 55.0558 18.2144 53.2 18.2122H47.0218C48.864 17.1131 50.2946 15.44 51.094 13.4497C51.8935 11.4594 52.0177 9.26179 51.4475 7.1941C50.8774 5.1264 49.6444 3.30287 47.9378 2.00332C46.2312 0.703772 44.1452 0 42 0C39.8548 0 37.7688 0.703772 36.0622 2.00332C34.3556 3.30287 33.1226 5.1264 32.5524 7.1941C31.9823 9.26179 32.1065 11.4594 32.906 13.4497C33.7054 15.44 35.136 17.1131 36.9782 18.2122H30.8C28.9442 18.2144 27.165 18.9525 25.8527 20.2645C24.5404 21.5765 23.8022 23.3554 23.8 25.2109V33.6093C22.3148 33.6093 20.8904 34.1992 19.8402 35.2492C18.79 36.2992 18.2 37.7234 18.2 39.2083V43.4075H14V39.2083C14 37.7234 13.41 36.2992 12.3598 35.2492C11.3096 34.1992 9.88521 33.6093 8.4 33.6093C6.91479 33.6093 5.49041 34.1992 4.4402 35.2492C3.39 36.2992 2.8 37.7234 2.8 39.2083V43.4075H1.4C1.0287 43.4075 0.672601 43.555 0.41005 43.8175C0.1475 44.08 0 44.436 0 44.8073V82.6003C0 82.6185 0.00979996 82.6339 0.00979996 82.652C0.013475 82.8179 0.0461689 82.9818 0.1064 83.1364C0.1064 83.1476 0.1204 83.156 0.126 83.1685C0.188831 83.3054 0.273465 83.4312 0.3766 83.5409C0.410521 83.5753 0.446522 83.6075 0.4844 83.6375C0.572361 83.7154 0.670283 83.7813 0.7756 83.8334C0.818549 83.8572 0.862972 83.8783 0.9086 83.8964C1.06458 83.961 1.2312 83.9962 1.4 84H82.6C82.9713 84 83.3274 83.8525 83.59 83.59C83.8525 83.3275 84 82.9715 84 82.6003V44.8073C84 44.436 83.8525 44.08 83.59 43.8175C83.3274 43.555 82.9713 43.4075 82.6 43.4075ZM35 9.81374C35 8.42952 35.4105 7.07639 36.1797 5.92546C36.9489 4.77453 38.0421 3.87749 39.3212 3.34778C40.6003 2.81806 42.0078 2.67946 43.3656 2.94951C44.7235 3.21956 45.9708 3.88612 46.9497 4.8649C47.9287 5.84369 48.5954 7.09074 48.8655 8.44836C49.1356 9.80597 48.997 11.2132 48.4672 12.492C47.9373 13.7709 47.0401 14.8639 45.889 15.6329C44.7378 16.402 43.3845 16.8124 42 16.8124C40.1442 16.8102 38.365 16.0721 37.0527 14.7601C35.7404 13.4481 35.0022 11.6692 35 9.81374ZM74.2 36.4088C74.9426 36.4088 75.6548 36.7038 76.1799 37.2288C76.705 37.7538 77 38.4658 77 39.2083V43.4075H71.4V39.2083C71.4 38.4658 71.695 37.7538 72.2201 37.2288C72.7452 36.7038 73.4574 36.4088 74.2 36.4088ZM68.6 79.2213L64.4 75.0221V46.207H68.6V79.2213ZM9.8 46.207H14V79.2213L9.8 75.0221V46.207ZM16.8 46.207H30.8V46.4058C29.6014 46.7152 28.5391 47.4129 27.7792 48.39C27.0193 49.367 26.6046 50.5683 26.6 51.806V56.0052H25.2C24.8287 56.0052 24.4726 56.1527 24.21 56.4152C23.9475 56.6777 23.8 57.0337 23.8 57.4049V81.2005H16.8V46.207ZM35 56.0052H29.4V51.806C29.4 51.0635 29.695 50.3514 30.2201 49.8264C30.7452 49.3014 31.4574 49.0065 32.2 49.0065C32.9426 49.0065 33.6548 49.3014 34.1799 49.8264C34.705 50.3514 35 51.0635 35 51.806V56.0052ZM26.6 58.8047H30.8V75.0221L26.6 79.2213V58.8047ZM33.6 58.8047H37.8V79.2213L33.6 75.0221V58.8047ZM40.6 58.8047H54.6V81.2005H40.6V58.8047ZM54.6 56.0052H53.2V51.806C53.1948 50.5716 52.778 49.3741 52.0156 48.4032L52.0548 47.7747C52.7765 48.3907 53.6599 48.7867 54.6 48.9155V56.0052ZM50.4 51.806V56.0052H44.8V51.806C44.8 51.0635 45.095 50.3514 45.6201 49.8264C46.1452 49.3014 46.8574 49.0065 47.6 49.0065C48.3426 49.0065 49.0548 49.3014 49.5799 49.8264C50.105 50.3514 50.4 51.0635 50.4 51.806ZM57.4 57.4049V46.207H61.6V75.0221L57.4 79.2213V57.4049ZM63 36.4088C63.7426 36.4088 64.4548 36.7038 64.9799 37.2288C65.505 37.7538 65.8 38.4658 65.8 39.2083V43.4075H60.2V39.2083C60.2 38.4658 60.495 37.7538 61.0201 37.2288C61.5452 36.7038 62.2574 36.4088 63 36.4088ZM26.6 25.2109C26.6 24.0972 27.0425 23.0291 27.8302 22.2416C28.6178 21.4541 29.6861 21.0117 30.8 21.0117H53.2C54.3139 21.0117 55.3822 21.4541 56.1698 22.2416C56.9575 23.0291 57.4 24.0972 57.4 25.2109V43.4075H56C55.6287 43.4075 55.2726 43.555 55.01 43.8175C54.7475 44.08 54.6 44.436 54.6 44.8073V46.0782C54.192 45.934 53.8385 45.6672 53.5879 45.3145C53.3373 44.9617 53.2018 44.5401 53.2 44.1074V29.4101C53.2057 29.2263 53.1751 29.0431 53.11 28.8711C53.0449 28.6991 52.9466 28.5416 52.8206 28.4076C52.5662 28.137 52.2147 27.9785 51.8434 27.967C51.6595 27.9613 51.4764 27.9918 51.3043 28.0569C51.1323 28.122 50.9748 28.2203 50.8407 28.3463C50.57 28.6006 50.4115 28.9521 50.4 29.3233L49.3262 46.5079C48.7704 46.3167 48.1877 46.2152 47.6 46.207C46.1148 46.207 44.6904 46.7969 43.6402 47.8469C42.59 48.8969 42 50.321 42 51.806V56.0052H37.8V51.806C37.7967 50.8189 37.5315 49.8504 37.0315 48.9993C36.5315 48.1482 35.8145 47.445 34.9538 46.9615L33.6 29.3023C33.5915 29.1213 33.5469 28.9437 33.4687 28.7802C33.3906 28.6166 33.2805 28.4703 33.1449 28.35C33.0094 28.2296 32.8511 28.1375 32.6795 28.0792C32.5078 28.0209 32.3262 27.9975 32.1454 28.0104C31.7836 28.0245 31.4414 28.1782 31.1906 28.4391C30.9397 28.7001 30.7997 29.0481 30.8 29.4101V43.4075H29.4V39.2083C29.3969 38.2299 29.1366 37.2695 28.6451 36.4234C28.1537 35.5773 27.4484 34.8752 26.6 34.3876V25.2109ZM21 39.2083C21 38.4658 21.295 37.7538 21.8201 37.2288C22.3452 36.7038 23.0574 36.4088 23.8 36.4088C24.5426 36.4088 25.2548 36.7038 25.7799 37.2288C26.305 37.7538 26.6 38.4658 26.6 39.2083V43.4075H21V39.2083ZM5.6 39.2083C5.6 38.4658 5.895 37.7538 6.4201 37.2288C6.9452 36.7038 7.65739 36.4088 8.4 36.4088C9.14261 36.4088 9.8548 36.7038 10.3799 37.2288C10.905 37.7538 11.2 38.4658 11.2 39.2083V43.4075H5.6V39.2083ZM7 46.207V75.0221L2.8 79.2213V46.207H7ZM4.7796 81.2005L8.4 77.5808L12.0204 81.2005H4.7796ZM28.5796 81.2005L30.8 78.9805V81.2005H28.5796ZM33.6 81.2005V78.9805L35.8204 81.2005H33.6ZM59.3796 81.2005L63 77.5808L66.6204 81.2005H59.3796ZM81.2 81.2005H71.4V46.207H81.2V81.2005Z" fill="black"/>
</svg>
